{"title":"Stolichani v poveche - Season 4 - Episode 12","uid":7891987,"size":525140734,"categoryP":"video","categoryS":"tv_shows","magnet":"?xt=urn:btih:bf80c251098487b61ead10712f8293fb820cacb3&amp;dn=Stolichani+v+poveche+-+Season+4+-+Episode+12&amp;tr=udp%3A%2F%2Ftracker.openbittorrent.com%3A80&amp;tr=udp%3A%2F%2Fopen.demonii.com%3A1337&amp;tr=udp%3A%2F%2Ftracker.coppersurfer.tk%3A6969&amp;tr=udp%3A%2F%2Fexodus.desync.com%3A6969","seeders":2,"leechers":0,"uploader":null,"files":1,"time":1354745942,"description":"HQ WEBrip\n\nFormat                                   : AVI\nFormat/Info                              : Audio Video Interleave\nFile size                                : 501 MiB\nDuration                                 : 46mn 36s\nOverall bit rate                         : 1 502 Kbps\nWriting application                      : Lavf52.84.0\n\nVideo\nID                                       : 0\nFormat                                   : xvid\nCodec ID                                 : xvid\nDuration                                 : 46mn 36s\nBit rate                                 : 1 363 Kbps\nWidth                                    : 720 pixels\nHeight                                   : 400 pixels\nDisplay aspect ratio                     : 16:9\nFrame rate                               : 25.000 fps\nBits/(Pixel*Frame)                       : 0.189\nStream size                              : 454 MiB (91%)\n\nAudio\nID                                       : 1\nFormat                                   : AC-3\nFormat/Info                              : Audio Coding 3\nMode extension                           : CM (complete main)\nFormat settings, Endianness              : Big\nCodec ID                                 : 2000\nDuration                                 : 46mn 36s\nBit rate mode                            : Constant\nBit rate                                 : 128 Kbps\nChannel(s)                               : 2 channels\nChannel positions                        : Front: L R\nSampling rate                            : 48.0 KHz\nBit depth                                : 16 bits\nCompression mode                         : Lossy\nStream size                              : 42.7 MiB (9%)\nAlignment                                : Aligned on interleaves\nInterleave, duration                     : 32 ms (0.80 video frame)\n\n","torrent":{"xt":"urn:btih:bf80c251098487b61ead10712f8293fb820cacb3","amp;dn":"Stolichani+v+poveche+-+Season+4+-+Episode+12","amp;tr":["udp%3A%2F%2Ftracker.openbittorrent.com%3A80","udp%3A%2F%2Fopen.demonii.com%3A1337","udp%3A%2F%2Ftracker.coppersurfer.tk%3A6969","udp%3A%2F%2Fexodus.desync.com%3A6969"],"infoHash":"bf80c251098487b61ead10712f8293fb820cacb3","infoHashBuffer":{"type":"Buffer","data":[191,128,194,81,9,132,135,182,30,173,16,113,47,130,147,251,130,12,172,179]},"announce":[],"urlList":[]}}